PathFileType  4	(X/Y/Z) C:\Users\antoi\Documents\MyRepositories\mobilecap\ResultsAnalysis
DataRate	CameraRate	NumFrames	NumMarkers	Units	OrigDataRate	OrigDataStartFrame	OrigNumFrames
100.0	100.0	4	51	mm	100.0	238	271
Frame#	Time	r_knee			r_shank_antsup			r_ankle			r_calc			r_5meta			r_toe			L_knee			L_shank_antsup			L_ankle			L_calc			L_5meta			L_toe			r_sh2			r_sh3			r_sh4			L_sh2			L_sh3			r_thigh1			r_thigh2			r_thigh3			r_thigh4			r_thigh5			L_thigh1			L_thigh2			L_thigh3			L_thigh4			r.ASIS			r.PSIS			L.ASIS			L.PSIS			C7			R_Shoulder			L_Shoulder			R_Sternum			L_Sternum			R_humerus			R_elbow_med			R_elbow_lat			R_forearm			R_wrist_radius			R_wrist_ulna			L_humerus			L_elbow_med			L_elbow_lat			L_forearm			L_wrist_radius			L_wrist_ulna			R_HJC			L_HJC			R_HJC_reg			L_HJC_reg			
		X1	Y1	Z1	X2	Y2	Z2	X3	Y3	Z3	X4	Y4	Z4	X5	Y5	Z5	X6	Y6	Z6	X7	Y7	Z7	X8	Y8	Z8	X9	Y9	Z9	X10	Y10	Z10	X11	Y11	Z11	X12	Y12	Z12	X13	Y13	Z13	X14	Y14	Z14	X15	Y15	Z15	X16	Y16	Z16	X17	Y17	Z17	X18	Y18	Z18	X19	Y19	Z19	X20	Y20	Z20	X21	Y21	Z21	X22	Y22	Z22	X23	Y23	Z23	X24	Y24	Z24	X25	Y25	Z25	X26	Y26	Z26	X27	Y27	Z27	X28	Y28	Z28	X29	Y29	Z29	X30	Y30	Z30	X31	Y31	Z31	X32	Y32	Z32	X33	Y33	Z33	X34	Y34	Z34	X35	Y35	Z35	X36	Y36	Z36	X37	Y37	Z37	X38	Y38	Z38	X39	Y39	Z39	X40	Y40	Z40	X41	Y41	Z41	X42	Y42	Z42	X43	Y43	Z43	X44	Y44	Z44	X45	Y45	Z45	X46	Y46	Z46	X47	Y47	Z47	X48	Y48	Z48	X49	Y49	Z49	X50	Y50	Z50	X51	Y51	Z51	

238	2.37000000	-263.01189	797.68583	-387.17976	-299.31756	750.57033	-359.63190	-280.08386	391.24610	-395.83483	-332.13207	396.29021	-458.75774	-208.06448	269.33631	-361.61071	-150.03947	274.65295	-401.99003	-265.09880	787.72724	-761.65692	-243.95370	706.66036	-776.83827	-298.05071	386.10245	-751.73244	-359.92786	391.65924	-699.78122	-229.42024	256.12374	-758.66756	-176.16926	261.89921	-711.38164	-297.24965	634.10051	-352.01654	-226.23667	753.18743	-385.68850	-222.54387	638.92829	-388.44349	-330.95078	718.42803	-780.27818	-333.54474	596.34405	-782.50966	-179.30361	1085.49432	-478.06561	-167.18367	977.38899	-456.49491	-182.63038	963.57176	-391.74828	-234.90128	1096.38896	-381.13201	-229.43791	982.48992	-365.64421	-246.00864	1110.08677	-762.01936	-238.42074	969.12203	-778.63643	-357.72714	1102.97308	-755.02280	-347.94359	963.04827	-742.81494	-189.17071	1263.01233	-461.67137	-374.34863	1309.34247	-523.91997	-210.38321	1246.83147	-693.60327	-384.90360	1305.97275	-619.35531	-244.33371	1757.85580	-600.79693	-156.29181	1733.72578	-453.65989	-192.68953	1717.45298	-753.94860	-129.59588	1661.91377	-595.14551	-136.32728	1657.32014	-624.07415	-95.14166	1535.50552	-336.50517	-114.29357	1407.56652	-346.59663	-75.87627	1448.27904	-300.09424	-16.32029	1543.13665	-380.74297	-6.85926	1612.57324	-451.60857	35.26689	1599.50236	-441.93433	-189.54679	1514.31540	-866.93522	-202.32841	1384.13977	-835.56020	-185.40807	1408.02801	-902.98874	-77.61622	1489.16439	-842.20927	-31.82363	1554.40479	-776.75584	4.23682	1529.18802	-786.68185	-270.11144	1186.45356	-485.21198	-297.17808	1185.01024	-673.94689	-264.36623	1194.61176	-483.45498	-281.29345	1189.20717	-636.51121	
239	2.38000000	-264.26115	799.96877	-386.63159	-299.70238	752.17797	-359.40076	-273.99201	392.85471	-397.57056	-325.31176	397.59457	-461.13650	-199.55099	271.65093	-364.75266	-141.23867	279.39994	-404.00797	-268.03627	790.01508	-759.69020	-246.06138	709.68901	-776.93210	-295.11027	388.45865	-750.94939	-355.79863	392.68689	-697.74801	-224.47525	259.67789	-759.80130	-170.25844	266.20557	-714.00400	-295.39881	635.66563	-352.26646	-226.62512	756.37675	-385.39862	-221.07170	642.51666	-388.74574	-333.37394	719.96664	-779.17695	-333.99526	597.73348	-781.26973	-180.93682	1087.52991	-476.28960	-169.24712	979.59677	-454.32497	-184.93191	965.87443	-389.67075	-237.14190	1098.88419	-379.58506	-231.88141	984.99664	-363.74954	-247.56237	1113.08221	-761.00445	-240.12648	972.18586	-778.32223	-359.24718	1106.35413	-754.33753	-350.09291	966.20884	-743.56364	-190.30513	1265.62392	-461.02064	-374.70106	1313.91673	-523.32285	-211.30415	1250.04985	-691.70625	-385.38845	1310.58011	-618.58940	-243.71008	1759.69967	-601.33584	-155.53561	1736.14895	-454.05077	-192.72283	1718.56197	-755.00913	-128.59461	1664.94695	-592.96981	-135.89658	1659.80703	-625.00732	-96.13790	1535.64581	-338.98950	-119.07873	1408.14250	-348.82327	-78.57513	1447.67618	-302.88884	-18.02043	1540.88070	-384.47703	-7.88130	1610.14945	-455.54896	33.90663	1596.08140	-446.28316	-190.60350	1513.14856	-865.22124	-206.53316	1383.60854	-832.62625	-188.46442	1406.52838	-900.34908	-79.33189	1485.81732	-839.64069	-32.28620	1550.39275	-774.31771	3.28592	1524.46087	-784.39086	-271.94134	1189.96727	-484.25258	-298.61547	1188.90016	-673.04589	-265.88619	1198.71885	-482.50114	-282.95818	1193.38892	-634.68096	
240	2.39000000	-263.94516	800.65784	-387.38558	-298.12463	752.93985	-358.98455	-268.18687	393.76489	-398.50313	-319.76250	397.48944	-462.12033	-191.04457	273.59727	-367.06530	-133.12081	283.28373	-406.10914	-270.66666	791.30382	-758.41629	-247.95091	711.87991	-777.07277	-292.57070	390.06441	-750.01163	-351.80574	393.10648	-695.26950	-220.20824	262.62282	-761.51537	-164.84167	269.66129	-717.05348	-291.98490	636.55556	-352.01178	-225.53091	758.28809	-386.09278	-218.44627	644.49693	-389.82888	-335.49803	720.77940	-778.13997	-334.43468	598.61083	-780.28524	-182.46868	1088.87048	-474.11602	-170.75708	980.97264	-452.09516	-187.04978	967.24687	-387.47982	-239.50651	1100.35211	-377.97809	-234.28188	986.47006	-361.85774	-249.09373	1114.97512	-759.71075	-241.65664	974.26136	-778.06359	-360.78568	1108.58201	-753.73689	-351.76215	968.32815	-744.06039	-191.72484	1267.02434	-460.12493	-375.08400	1317.39734	-522.90918	-212.31783	1252.03665	-690.06984	-385.89370	1314.00608	-618.13432	-242.91174	1761.08024	-602.30776	-154.66769	1737.63157	-454.65190	-192.76874	1718.86760	-756.14437	-128.00652	1666.03419	-593.80288	-135.46336	1660.91339	-625.66370	-97.17807	1535.19313	-341.20220	-123.47805	1408.18136	-350.68413	-81.21707	1446.58010	-305.33300	-19.64385	1538.25836	-387.83837	-8.95515	1607.19212	-459.14166	32.73430	1592.33536	-450.02852	-191.84319	1511.36500	-864.03485	-210.34212	1382.43649	-830.08006	-191.41341	1404.31272	-897.74529	-80.89822	1481.88458	-837.13051	-32.75165	1545.94758	-772.04996	2.36294	1519.31891	-782.18527	-274.04703	1192.31809	-483.38543	-300.11693	1191.60444	-672.26464	-267.68493	1201.65639	-481.34762	-284.89695	1196.25690	-632.96993	
241	2.40000000	-262.80258	800.49618	-388.16855	-295.45265	752.90174	-358.38652	-262.71368	394.03165	-398.64134	-315.51480	396.35801	-461.84300	-183.14952	275.08957	-368.26996	-125.93815	285.89951	-408.12666	-272.80610	791.83053	-758.21031	-249.44100	713.14998	-777.00928	-290.29038	390.80669	-749.15035	-348.24401	392.73101	-692.98698	-216.37097	264.97237	-763.59933	-160.04715	272.29681	-719.91435	-287.93063	636.80271	-351.41556	-223.66454	758.96587	-387.23294	-215.28659	644.88766	-390.98913	-337.14097	720.96975	-777.18628	-334.65279	599.00038	-779.56748	-183.75811	1089.57264	-471.85577	-171.61631	981.70453	-449.84330	-188.74073	967.79788	-385.40203	-241.85001	1100.66704	-376.55278	-236.32482	986.84864	-360.31169	-250.56205	1115.90235	-758.49747	-243.15117	975.24658	-777.53166	-362.26318	1109.78430	-753.49346	-353.16927	969.49468	-744.22972	-193.27837	1267.22594	-459.10149	-375.60449	1319.69393	-522.56828	-213.53093	1252.54481	-688.63474	-386.52283	1316.30876	-617.86557	-241.96835	1761.59378	-603.32045	-153.49427	1738.08418	-455.45254	-192.72879	1718.22270	-757.29348	-127.50927	1665.85830	-595.05276	-134.98303	1660.81321	-626.26720	-98.30425	1534.00829	-343.05287	-127.45460	1407.52451	-352.37200	-83.80424	1444.78030	-307.53767	-21.22812	1535.22720	-390.70942	-9.93407	1603.76869	-462.27778	31.74420	1588.33898	-453.25250	-193.36619	1508.90382	-863.27563	-213.72530	1380.70396	-827.63421	-194.22999	1401.38325	-895.24729	-82.27584	1477.35290	-834.79338	-33.18860	1541.07834	-770.15236	1.44405	1513.62736	-779.73411	-276.40642	1193.50912	-482.50939	-301.85401	1192.98093	-671.47419	-269.68516	1203.10155	-480.16377	-287.02039	1197.72667	-631.46803	
